<svg width="42" height="42" viewBox="0 0 42 42" fill="none" xmlns="http://www.w3.org/2000/svg">
<path d="M18.3817 42C17.6399 42 17.0181 41.7484 16.5162 41.2453C16.0144 40.7422 15.7635 40.1187 15.7635 39.375V23.625L0.577558 4.2C-0.0770077 3.325 -0.175193 2.40625 0.283003 1.44375C0.741199 0.48125 1.53759 0 2.67217 0H39.3278C40.4624 0 41.2588 0.48125 41.717 1.44375C42.1752 2.40625 42.077 3.325 41.4224 4.2L26.2365 23.625V39.375C26.2365 40.1187 25.9856 40.7422 25.4838 41.2453C24.9819 41.7484 24.3601 42 23.6183 42H18.3817ZM21 21.7875L33.9604 5.25H8.0396L21 21.7875Z" fill="black"/>
</svg>
