<svg width="42" height="42" viewBox="0 0 42 42" fill="none" xmlns="http://www.w3.org/2000/svg">
<path d="M38.7333 42L24.0333 27.3C22.8667 28.2333 21.525 28.9722 20.0083 29.5167C18.4917 30.0611 16.8778 30.3333 15.1667 30.3333C10.9278 30.3333 7.34028 28.8653 4.40417 25.9292C1.46806 22.9931 0 19.4056 0 15.1667C0 10.9278 1.46806 7.34028 4.40417 4.40417C7.34028 1.46806 10.9278 0 15.1667 0C19.4056 0 22.9931 1.46806 25.9292 4.40417C28.8653 7.34028 30.3333 10.9278 30.3333 15.1667C30.3333 16.8778 30.0611 18.4917 29.5167 20.0083C28.9722 21.525 28.2333 22.8667 27.3 24.0333L42 38.7333L38.7333 42ZM15.1667 25.6667C18.0833 25.6667 20.5625 24.6458 22.6042 22.6042C24.6458 20.5625 25.6667 18.0833 25.6667 15.1667C25.6667 12.25 24.6458 9.77083 22.6042 7.72917C20.5625 5.6875 18.0833 4.66667 15.1667 4.66667C12.25 4.66667 9.77083 5.6875 7.72917 7.72917C5.6875 9.77083 4.66667 12.25 4.66667 15.1667C4.66667 18.0833 5.6875 20.5625 7.72917 22.6042C9.77083 24.6458 12.25 25.6667 15.1667 25.6667Z" fill="black"/>
</svg>
